<svg data-v-0dd9719b="" version="1.0" xmlns="http://www.w3.org/2000/svg" xmlns:xlink="http://www.w3.org/1999/xlink" width="100%" height="100%" viewBox="0 0 340.000000 250.000000" preserveAspectRatio="xMidYMid meet" color-interpolation-filters="sRGB" style="margin: auto;"> <rect data-v-0dd9719b="" x="0" y="0" width="100%" height="100%" fill="#fff" fill-opacity="1" class="background"></rect> <rect data-v-0dd9719b="" x="0" y="0" width="100%" height="100%" fill="url(#watermark)" fill-opacity="1" class="watermarklayer"></rect> <g data-v-0dd9719b="" fill="#333" class="icon-text-wrapper icon-svg-group iconsvg" transform="translate(49.665000915527344,97.29346656799316)"><g class="iconsvg-imagesvg" transform="translate(0,2.265554428100586)"><g><rect fill="#333" fill-opacity="0" stroke-width="2" x="0" y="0" width="60" height="50.88195386702849" class="image-rect"></rect> <svg x="0" y="0" width="60" height="50.88195386702849" filtersec="colorsb4009255288" class="image-svg-svg primary" style="overflow: visible;"><svg xmlns="http://www.w3.org/2000/svg" viewBox="0 -0.0010010600090026855 50.06999969482422 42.46099853515625"><path d="M6.67 10.31l.15.12a30.12 30.12 0 0 0 5.62 3.35v.21c-.14 4.78 0 9.56-.06 14.34 4 2.53 8.2 4.75 12.27 7.17l.37.36c.09 2.12-.22 4.27.23 6.37v.23C16.85 40.15 8.42 37.92 0 35.68c2-8.51 4.49-16.9 6.67-25.37z" fill="#175bec"></path><path d="M37.71 13.71C41.9 11.49 46 9 50.07 6.66c-2.07 8.08-4.31 16.12-6.43 24.19-.11 1.19-1.36 1.48-2.21 2C36 36 30.63 39.14 25.21 42.23c-.45-2.1-.14-4.25-.23-6.37l.21-.25c3.86-2.16 7.66-4.42 11.51-6.59.39-.3 1.09-.52 1-1.15.04-4.72-.06-9.44.01-14.16z" fill="#198efb"></path><path d="M23.83.57c.52-.24 1.06-.76 1.69-.5q12.29 3.27 24.55 6.59C46 9 41.9 11.49 37.71 13.71l-.17.1C33.41 11.33 29.2 9 25 6.55c-4.23 2.34-8.38 4.83-12.59 7.23a30.12 30.12 0 0 1-5.62-3.35C12.47 7.11 18.18 3.89 23.83.57z" fill="#198efb"></path><path d="M12.44 13.78c4.21-2.4 8.36-4.89 12.56-7.23 4.2 2.45 8.41 4.78 12.54 7.26-4 2.63-8.34 4.75-12.32 7.42-.12 4.79 0 9.59 0 14.38l-.21.25-.37-.36c.17-4.77.27-9.56 0-14.33-2.56-2-5.59-3.33-8.35-5A38.77 38.77 0 0 0 12.4 14z" fill="#87ebff"></path><path d="M37.54 13.81l.17-.1c-.07 4.72 0 9.44 0 14.16.11.63-.59.85-1 1.15-3.85 2.17-7.65 4.43-11.51 6.59 0-4.79-.09-9.59 0-14.38 4-2.67 8.33-4.79 12.34-7.42z" fill="#87ebff"></path></svg></svg> <!----></g></g> <g transform="translate(67,0)"><g data-gra="path-name" fill-rule="" class="tp-name iconsvg-namesvg" transform="translate(0,0)"><g transform="scale(1)"><g><path d="M8.61-29.71L8.61-33.75Q8.61-33.93 8.96-33.75L8.96-33.75Q11.07-33.4 15.12-33.4L15.12-33.4 29.88-33.4Q33.93-33.4 36.04-33.75L36.04-33.75Q36.39-33.93 36.39-33.75L36.39-33.75 36.39-29.71Q36.39-29.53 35.86-29.71L35.86-29.71Q33.75-30.06 29.88-30.06L29.88-30.06 15.12-30.06Q11.25-30.06 9.14-29.71L9.14-29.71Q8.61-29.53 8.61-29.71L8.61-29.71ZM2.99-17.93L2.99-21.97Q4.04-21.62 9.32-21.62L9.32-21.62 34.98-21.62Q40.43-21.62 41.66-21.97L41.66-21.97 41.66-17.93Q40.61-18.28 35.16-18.28L35.16-18.28 9.49-18.28Q4.04-18.28 2.99-17.93L2.99-17.93ZM24.79-15.82L24.79-15.82Q24.79-15.64 24.43-15.29L24.43-15.29Q23.03-14.41 21.45-12.83L21.45-12.83Q20.92-12.3 19.34-10.37L19.34-10.37Q13.71-3.52 11.95-2.46L11.95-2.46Q19.34-2.64 28.3-2.81L28.3-2.81Q31.82-2.99 32.52-2.99L32.52-2.99Q30.06-6.68 26.54-10.37L26.54-10.37 30.23-12.48Q33.93-7.38 40.43 0.53L40.43 0.53 36.39 2.99Q35.86 2.11 34.98 0.88L34.98 0.88Q34.45 0 34.28-0.18L34.28-0.18Q32.52-0.18 28.83 0L28.83 0Q12.66 0.18 7.56 1.58L7.56 1.58 5.98-2.64Q12.83-4.22 19.34-17.75L19.34-17.75Q24.61-16.17 24.79-15.82ZM65.04-36.21L65.04-36.21Q69.08-36.39 70.14-35.51L70.14-35.51Q70.31-35.33 69.96-34.8L69.96-34.8Q68.91-33.4 68.91-30.76L68.91-30.76 80.51-30.76Q83.85-30.76 87.19-31.11L87.19-31.11 87.19-27.07Q84.02-27.42 80.68-27.42L80.68-27.42 68.91-27.42 68.91-22.85 77.52-22.85Q81.39-22.85 84.02-23.2L84.02-23.2Q84.02-23.2 84.02-22.68L84.02-22.68Q83.85-20.21 83.85-17.4L83.85-17.4 83.85 0.53Q83.85 2.64 82.62 3.16L82.62 3.16Q81.91 3.69 76.64 4.22L76.64 4.22Q76.64 2.11 74.88 0L74.88 0Q80.86 0.7 80.33-1.41L80.33-1.41 80.33-19.69 54.84-19.69 54.84-1.58Q55.02 4.22 55.02 4.22L55.02 4.22 50.98 4.22Q51.33 2.11 51.33-1.41L51.33-1.41 51.33-17.4Q51.33-20.04 50.98-22.5L50.98-22.5Q50.98-23.03 50.98-23.2L50.98-23.2Q53.44-22.85 56.43-22.85L56.43-22.85 65.21-22.85 65.21-27.25 54.14-27.25Q48.87-27.25 47.64-26.89L47.64-26.89 47.64-31.11Q48.87-30.76 54.49-30.76L54.49-30.76 65.21-30.76 65.21-33.57Q65.21-35.33 65.04-36.21ZM70.49-19.16L70.49-19.16Q74.88-17.93 74.88-17.75L74.88-17.75Q74.88-17.58 74.53-17.23L74.53-17.23Q72.95-15.82 71.54-13.01L71.54-13.01 73.65-13.01Q74.18-13.01 77.52-13.18L77.52-13.18 77.52-10.02Q77.7-10.2 73.3-10.2L73.3-10.2 68.73-10.2 68.73-6.68 73.65-6.68Q75.06-6.68 77.7-6.86L77.7-6.86 77.7-3.87Q75.06-4.04 73.65-4.04L73.65-4.04 68.73-4.04 68.73-0.88Q68.73 1.41 69.08 3.52L69.08 3.52 65.04 3.52Q65.39 2.29 65.39-0.88L65.39-0.88 65.39-4.04 60.82-4.04Q59.59-4.04 56.43-3.87L56.43-3.87 56.43-6.86Q58.89-6.68 60.82-6.68L60.82-6.68 65.39-6.68 65.39-10.2 61.35-10.2Q60.64-10.2 57.3-10.02L57.3-10.02 57.3-13.18Q59.41-13.01 61.17-13.01L61.17-13.01 68.55-13.01Q70.31-16.35 70.49-19.16ZM60.29-17.93L63.46-19.16Q64.34-17.93 65.39-14.94L65.39-14.94 62.23-13.71Q61.35-16.7 60.29-17.93L60.29-17.93ZM122.34-36.04L122.34-36.04Q126.21-36.04 126.56-35.68L126.56-35.68Q126.56-35.51 126.56-35.16L126.56-35.16Q125.86-33.4 126.04-30.23L126.04-30.23 127.27-30.23Q130.08-30.23 132.19-30.59L132.19-30.59 132.19-26.72Q131.13-27.07 127.44-27.07L127.44-27.07 126.04-27.07Q126.04-23.38 126.21-22.32L126.21-22.32 122.17-22.32Q122.52-23.91 122.52-27.07L122.52-27.07 116.37-27.07Q116.37-23.55 116.54-22.15L116.54-22.15 112.85-22.15Q113.2-24.43 113.2-27.07L113.2-27.07 111.8-27.07Q108.63-27.07 107.4-26.89L107.4-26.89 107.4-30.59Q108.81-30.41 111.62-30.23L111.62-30.23 113.2-30.23Q113.2-34.98 113.03-35.86L113.03-35.86Q116.72-35.86 117.25-35.51L117.25-35.51Q117.25-35.51 117.25-35.33L117.25-35.33Q116.37-34.28 116.37-30.23L116.37-30.23 122.52-30.23Q122.52-30.94 122.52-32.17L122.52-32.17Q122.7-34.8 122.34-36.04ZM93.69-31.99L93.69-31.99Q93.69-31.99 97.73-31.82L97.73-31.82 100.9-31.82Q104.59-31.82 105.64-31.99L105.64-31.99Q105.29-30.23 105.29-25.14L105.29-25.14 105.29-10.2Q105.29-5.27 105.64-3.69L105.64-3.69 101.6-3.69Q101.95-4.57 101.95-7.56L101.95-7.56 97.38-7.56 97.38-6.15Q97.56-0.53 97.56-0.53L97.56-0.53 93.69-0.53Q94.04-1.58 94.04-6.5L94.04-6.5 94.04-25.14Q93.87-30.23 93.69-31.99ZM102.13-10.37L102.13-29 97.38-29 97.38-10.37 102.13-10.37ZM108.46-20.57L108.46-20.57Q110.57-20.39 115.84-20.21L115.84-20.21 122.7-20.21Q128.67-20.21 130.43-20.57L130.43-20.57Q130.08-18.81 130.08-13.89L130.08-13.89 130.08-2.46Q130.08 0.53 130.43 4.04L130.43 4.04 126.39 4.04Q126.56 3.34 126.56 0.53L126.56 0.53 112.15 0.53Q112.15 1.23 112.32 2.46L112.32 2.46Q112.32 3.52 112.32 3.87L112.32 3.87 108.28 3.87Q108.63 1.58 108.63-1.76L108.63-1.76 108.63-13.89Q108.63-19.34 108.46-20.57ZM117.6-17.23L112.15-17.23 112.15-11.43 117.6-11.43 117.6-17.23ZM126.56-11.43L126.56-17.23 120.76-17.23 120.76-11.43 126.56-11.43ZM117.6-8.44L112.15-8.44 112.15-2.11 117.6-2.11 117.6-8.44ZM126.56-8.44L120.76-8.44 120.76-2.11 126.56-2.11 126.56-8.44ZM143.61-29.71L143.61-33.75Q143.61-33.93 143.96-33.75L143.96-33.75Q146.07-33.4 150.12-33.4L150.12-33.4 164.88-33.4Q168.93-33.4 171.04-33.75L171.04-33.75Q171.39-33.93 171.39-33.75L171.39-33.75 171.39-29.71Q171.39-29.53 170.86-29.71L170.86-29.71Q168.75-30.06 164.88-30.06L164.88-30.06 150.12-30.06Q146.25-30.06 144.14-29.71L144.14-29.71Q143.61-29.53 143.61-29.71L143.61-29.71ZM137.99-17.93L137.99-21.97Q139.04-21.62 144.32-21.62L144.32-21.62 169.98-21.62Q175.43-21.62 176.66-21.97L176.66-21.97 176.66-17.93Q175.61-18.28 170.16-18.28L170.16-18.28 144.49-18.28Q139.04-18.28 137.99-17.93L137.99-17.93ZM159.79-15.82L159.79-15.82Q159.79-15.64 159.43-15.29L159.43-15.29Q158.03-14.41 156.45-12.83L156.45-12.83Q155.92-12.3 154.34-10.37L154.34-10.37Q148.71-3.52 146.95-2.46L146.95-2.46Q154.34-2.64 163.3-2.81L163.3-2.81Q166.82-2.99 167.52-2.99L167.52-2.99Q165.06-6.68 161.54-10.37L161.54-10.37 165.23-12.48Q168.93-7.38 175.43 0.53L175.43 0.53 171.39 2.99Q170.86 2.11 169.98 0.88L169.98 0.88Q169.45 0 169.28-0.18L169.28-0.18Q167.52-0.18 163.83 0L163.83 0Q147.66 0.18 142.56 1.58L142.56 1.58 140.98-2.64Q147.83-4.22 154.34-17.75L154.34-17.75Q159.61-16.17 159.79-15.82Z" transform="translate(-2.990000009536743, 36.24056625366211)"></path></g> <!----> <!----> <!----> <!----> <!----> <!----> <!----></g></g> <g data-gra="path-slogan" fill-rule="" class="tp-slogan iconsvg-slogansvg" fill="#333" transform="translate(5.000007629394531,46.460567474365234)"><rect x="0" height="1" y="3.9750003814697266" width="24.599998474121094"></rect> <rect height="1" y="3.9750003814697266" width="24.599998474121094" x="139.06999969482422"></rect> <g transform="translate(27.599998474121094,0)"><g transform="scale(1)"><path d="M7.83-8.58L4.59-3.47L4.59 0L3.42 0L3.42-3.47L0.19-8.58L1.55-8.58L3.98-4.45L6.47-8.58L7.83-8.58ZM14.53-3.19L14.53-8.58L15.70-8.58L15.70-3.05Q15.56 0.05 12.19 0.14L12.19 0.14Q9.05 0.05 8.91-2.86L8.91-2.86L8.91-8.58L10.08-8.58L10.08-3.19Q10.13-0.84 12.23-0.80L12.23-0.80Q14.53-0.84 14.53-3.19L14.53-3.19ZM18.89-8.58L23.20-1.64L23.20-8.58L24.33-8.58L24.33 0L23.02 0L18.66-6.94L18.61-6.94L18.61 0L17.48 0L17.48-8.58L18.89-8.58ZM27.52-8.58L31.83-1.64L31.83-8.58L32.95-8.58L32.95 0L31.64 0L27.28-6.94L27.23-6.94L27.23 0L26.11 0L26.11-8.58L27.52-8.58ZM40.41 0L39.56-2.48L36.09-2.48L35.20 0L34.03 0L37.27-8.58L38.58-8.58L41.67 0L40.41 0ZM37.83-7.31L36.47-3.52L39.14-3.52L37.88-7.31L37.83-7.31ZM44.11-8.58L48.42-1.64L48.42-8.58L49.55-8.58L49.55 0L48.23 0L43.88-6.94L43.83-6.94L43.83 0L42.70 0L42.70-8.58L44.11-8.58ZM62.91-8.58L62.91 0L61.78 0L61.78-5.06Q61.78-5.77 61.78-7.22L61.78-7.22L59.34 0L58.17 0L55.78-7.22L55.73-7.22Q55.73-6.70 55.78-5.67L55.78-5.67Q55.78-5.16 55.78-5.06L55.78-5.06L55.78 0L54.61 0L54.61-8.58L56.30-8.58L58.78-1.31L61.22-8.58L62.91-8.58ZM64.78-8.58L65.95-8.58L65.95 0L64.78 0L64.78-8.58ZM73.59 0L72.75-2.48L69.28-2.48L68.39 0L67.22 0L70.45-8.58L71.77-8.58L74.86 0L73.59 0ZM71.02-7.31L69.66-3.52L72.33-3.52L71.06-7.31L71.02-7.31ZM82.69-4.27L82.69-4.27Q82.50-7.64 79.69-7.83L79.69-7.83Q76.83-7.69 76.69-4.27L76.69-4.27Q76.83-0.94 79.69-0.80L79.69-0.80Q82.50-0.98 82.69-4.27ZM83.86-4.27L83.86-4.27Q83.58 0 79.69 0.14L79.69 0.14Q75.75 0 75.47-4.27L75.47-4.27Q75.70-8.72 79.69-8.81L79.69-8.81Q83.58-8.67 83.86-4.27ZM92.16-8.58L88.92-3.47L88.92 0L87.75 0L87.75-3.47L84.52-8.58L85.88-8.58L88.31-4.45L90.80-8.58L92.16-8.58ZM98.86-3.19L98.86-8.58L100.03-8.58L100.03-3.05Q99.89 0.05 96.52 0.14L96.52 0.14Q93.38 0.05 93.23-2.86L93.23-2.86L93.23-8.58L94.41-8.58L94.41-3.19Q94.45-0.84 96.56-0.80L96.56-0.80Q98.86-0.84 98.86-3.19L98.86-3.19ZM103.22-8.58L107.53-1.64L107.53-8.58L108.66-8.58L108.66 0L107.34 0L102.98-6.94L102.94-6.94L102.94 0L101.81 0L101.81-8.58L103.22-8.58Z" transform="translate(-0.1875, 8.8125)"></path></g></g></g></g></g><defs v-gra="od"></defs></svg>